<?xml version="1.0" encoding="UTF-8" standalone="no"?> <!-- Created with Vectornator for iOS (http://vectornator.io/) --><!DOCTYPE svg PUBLIC "-//W3C//DTD SVG 1.1//EN" "http://www.w3.org/Graphics/SVG/1.1/DTD/svg11.dtd">
<svg height="100%" style="fill-rule:nonzero;clip-rule:evenodd;stroke-linecap:round;stroke-linejoin:round;" version="1.1" viewBox="0 0 83 83" width="100%" xmlSpace="preserve" xmlns="http://www.w3.org/2000/svg" xmlnsVectornator="http://vectornator.io" xmlnsXlink="http://www.w3.org/1999/xlink">
<defs/>
<g id="Untitled">
<g opacity="1">
<path d="M74.6491 19.9372C74.1897 18.4669 73.087 17.2723 71.7086 16.5372L43.6813 3.12086C42.9461 2.75329 42.1191 2.66139 41.384 2.66139C40.6488 2.66139 39.8218 2.66139 39.0866 2.84518L11.0594 16.3534C9.68097 16.9967 8.67015 18.1913 8.30258 19.7534L1.41062 49.9862C1.13494 51.5483 1.50251 53.1105 2.42144 54.397L21.8108 78.381C22.9135 79.4837 24.4757 80.2189 26.0379 80.3108L56.9138 80.3108C58.5679 80.4945 60.1301 79.7594 61.1409 78.381L80.5303 54.397C81.4492 53.1105 81.8168 51.5483 81.633 49.9862C81.633 49.9862 74.6491 19.9372 74.6491 19.9372Z" fill="#4f46e5" opacity="1"/>
<path d="M70.3302 48.7915L70.3302 48.7915C70.2383 48.7915 70.1464 48.7915 70.1464 48.6997C70.1464 48.6078 69.9626 48.6078 69.7788 48.6078C69.4112 48.5159 69.0437 48.5159 68.6761 48.5159C68.4923 48.5159 68.3085 48.5159 68.1247 48.424L68.0328 48.424C67.022 48.3321 65.9193 48.1483 64.9085 47.8726C64.6328 47.7807 64.3571 47.505 64.2652 47.2294C64.3571 47.2294 64.2652 47.2294 64.2652 47.2294L64.2652 47.2294L63.5301 47.0456C63.8977 44.3807 63.7139 41.6239 63.1625 38.959C62.5193 36.2941 61.4166 33.7211 59.9463 31.4238L60.4976 30.8725L60.4976 30.8725L60.4976 30.7806C60.4976 30.5049 60.5895 30.1373 60.7733 29.9535C61.6004 29.2184 62.4274 28.667 63.3463 28.1157L63.3463 28.1157C63.5301 28.0238 63.7139 27.9319 63.8977 27.84C64.2652 27.6562 64.5409 27.4724 64.9085 27.2886C65.0004 27.1968 65.0923 27.1968 65.1842 27.1049C65.2761 27.013 65.1842 27.013 65.1842 26.9211L65.1842 26.9211C66.0112 26.2778 66.195 25.1751 65.5517 24.3481C65.2761 23.9805 64.7247 23.7048 64.2652 23.7048C63.8058 23.7048 63.3463 23.8886 62.9787 24.1643L62.9787 24.1643L62.8869 24.2562C62.795 24.3481 62.7031 24.44 62.6112 24.44C62.3355 24.7157 62.0598 24.9913 61.876 25.267C61.7841 25.4508 61.6004 25.5427 61.5085 25.6346L61.5085 25.6346C60.8652 26.3697 60.0382 27.1049 59.2111 27.6562C59.0274 27.7481 58.8436 27.84 58.6598 27.84C58.5679 27.84 58.3841 27.84 58.2922 27.7481L58.2003 27.7481L57.4652 28.2076C56.73 27.4724 55.903 26.7373 55.1679 26.0021C51.7678 23.3373 47.5408 21.6832 43.2218 21.2237L43.1299 20.4886L43.1299 20.4886L43.1299 20.5805C42.8542 20.3967 42.7623 20.121 42.6705 19.8453C42.6705 18.8345 42.6705 17.8237 42.8542 16.721L42.8542 16.6291C42.8542 16.4453 42.9461 16.2615 42.9461 16.0777C43.038 15.7102 43.038 15.3426 43.1299 14.975L43.1299 14.4237L43.1299 14.4237C43.2218 13.5047 42.4867 12.5858 41.5677 12.4939C41.0164 12.402 40.465 12.6777 40.0056 13.1372C39.638 13.5047 39.4542 13.9642 39.4542 14.4237L39.4542 14.4237L39.4542 14.8831C39.4542 15.2507 39.5461 15.6183 39.638 15.9858C39.7299 16.1696 39.7299 16.3534 39.7299 16.5372L39.7299 16.6291C39.9137 17.6399 39.9137 18.6507 39.9137 19.7534C39.8218 20.0291 39.7299 20.3048 39.4542 20.4886L39.4542 20.6724L39.4542 20.6724L39.3623 21.4075C38.3515 21.4994 37.3407 21.6832 36.238 21.867C31.919 22.7859 27.9676 25.0832 24.9352 28.2995L24.3838 27.9319L24.2919 27.9319C24.2 27.9319 24.1081 28.0238 23.9243 28.0238C23.7406 28.0238 23.5568 27.9319 23.373 27.84C22.5459 27.1968 21.7189 26.4616 21.0757 25.7265L21.0757 25.7265C20.9838 25.5427 20.8 25.4508 20.7081 25.3589C20.4324 25.0832 20.2486 24.8075 19.9729 24.5319C19.8811 24.44 19.7892 24.44 19.6973 24.3481C19.6054 24.2562 19.6054 24.2562 19.6054 24.2562L19.6054 24.2562C19.2378 23.9805 18.7783 23.7967 18.3189 23.7967C17.7675 23.7967 17.3081 23.9805 17.0324 24.44C16.481 25.267 16.6648 26.3697 17.4 27.013L17.4 27.013C17.4918 27.013 17.4918 27.1049 17.4918 27.1049C17.4918 27.1049 17.6756 27.2886 17.7675 27.2886C18.0432 27.4724 18.4108 27.6562 18.7783 27.84C18.9621 27.9319 19.1459 28.0238 19.3297 28.1157L19.3297 28.1157C20.2486 28.667 21.1676 29.2184 21.9027 29.9535C22.0865 30.1373 22.2703 30.5049 22.1784 30.7806L22.1784 30.6887L22.1784 30.6887L22.7297 31.24C22.6378 31.4238 22.5459 31.5157 22.4541 31.6995C19.6054 36.2022 18.4108 41.532 19.2378 46.7699L18.5027 46.9537L18.5027 46.9537C18.5027 47.0456 18.4108 47.0456 18.4108 47.0456C18.3189 47.3213 18.0432 47.505 17.7675 47.6888C16.7567 47.9645 15.7459 48.1483 14.6432 48.2402L14.6432 48.2402C14.4594 48.2402 14.2756 48.2402 14.0918 48.3321C13.7242 48.3321 13.3567 48.424 12.9891 48.424C12.8972 48.424 12.8053 48.5159 12.6215 48.5159C12.5296 48.5159 12.5296 48.5159 12.4377 48.6078L12.4377 48.6078C11.4269 48.7915 10.7837 49.7105 10.9675 50.7213L10.9675 50.7213C11.1512 51.5483 11.9783 52.0997 12.8053 52.0078C12.9891 52.0078 13.081 52.0078 13.2648 51.9159L13.2648 51.9159C13.3567 51.9159 13.3567 51.9159 13.3567 51.824C13.3567 51.7321 13.6323 51.824 13.7242 51.824C14.0918 51.7321 14.4594 51.5483 14.7351 51.4564C14.9188 51.3645 15.1026 51.2727 15.2864 51.2727L15.3783 51.2727C16.3891 50.9051 17.3081 50.6294 18.4108 50.4456L18.5027 50.4456C18.7783 50.4456 19.054 50.5375 19.2378 50.7213C19.3297 50.7213 19.3297 50.8132 19.3297 50.8132L19.3297 50.8132L20.1567 50.7213C21.5351 54.9484 24.1081 58.716 27.6919 61.4727C28.519 62.116 29.2541 62.6674 30.173 63.1268L29.7136 63.7701L29.7136 63.7701C29.7136 63.862 29.8055 63.862 29.8055 63.862C29.9893 64.1376 29.9893 64.5052 29.8974 64.7809C29.5298 65.6998 28.9784 66.6187 28.4271 67.4458L28.4271 67.5377C28.3352 67.7215 28.2433 67.8133 28.0595 67.9971C27.8757 68.1809 27.6919 68.5485 27.4163 68.9161C27.3244 69.0079 27.3244 69.0998 27.2325 69.1917C27.2325 69.1917 27.2325 69.2836 27.1406 69.2836L27.1406 69.2836C26.6811 70.2026 27.0487 71.3053 27.8757 71.7647C28.0595 71.8566 28.3352 71.9485 28.519 71.9485C29.2541 71.9485 29.8974 71.4891 30.2649 70.8458L30.2649 70.8458C30.2649 70.8458 30.2649 70.7539 30.3568 70.7539C30.3568 70.662 30.4487 70.5701 30.5406 70.4782C30.6325 70.1107 30.8163 69.835 30.9082 69.4674L31.092 68.9161L31.092 68.9161C31.3676 67.9052 31.8271 66.9863 32.2866 66.0674C32.4704 65.7917 32.746 65.6079 33.0217 65.516C33.1136 65.516 33.1136 65.516 33.1136 65.4241L33.1136 65.4241L33.4812 64.689C36.0542 65.6998 38.7191 66.1593 41.4758 66.1593C43.1299 66.1593 44.784 65.9755 46.4381 65.516C47.4489 65.3322 48.4597 64.9647 49.3786 64.689L49.7462 65.3322L49.7462 65.3322C49.8381 65.3322 49.8381 65.3322 49.8381 65.4241C50.1138 65.516 50.3894 65.6998 50.5732 65.9755C51.0327 66.8944 51.4922 67.8133 51.7678 68.8242L51.7678 68.9161L51.9516 69.4674C52.0435 69.835 52.1354 70.2026 52.3192 70.4782C52.4111 70.5701 52.4111 70.662 52.503 70.7539C52.503 70.7539 52.503 70.8458 52.5949 70.8458L52.5949 70.8458C52.9624 71.4891 53.6057 71.9485 54.3408 71.9485C54.6165 71.9485 54.8003 71.8566 55.076 71.7647C55.4435 71.5809 55.8111 71.2134 55.903 70.7539C55.9949 70.2944 55.9949 69.835 55.8111 69.3755L55.8111 69.3755C55.8111 69.2836 55.7192 69.2836 55.7192 69.2836C55.7192 69.1917 55.6273 69.0998 55.5354 69.0079C55.3517 68.6404 55.1679 68.3647 54.8922 68.089C54.8003 67.9052 54.7084 67.8133 54.5246 67.6296L54.5246 67.4458C53.8814 66.6187 53.4219 65.6998 53.0543 64.7809C52.9624 64.5052 52.9624 64.1376 53.1462 63.862C53.1462 63.7701 53.2381 63.7701 53.2381 63.7701L53.2381 63.7701L52.9624 63.0349C57.649 60.1862 61.2328 55.7754 62.8869 50.5375L63.622 50.6294L63.622 50.6294C63.7139 50.6294 63.7139 50.5375 63.7139 50.5375C63.8977 50.3537 64.1734 50.2618 64.449 50.2618L64.5409 50.2618C65.5517 50.4456 66.5626 50.7213 67.4815 51.0889L67.5734 51.0889C67.7572 51.1808 67.941 51.2727 68.1247 51.2727C68.4923 51.4564 68.768 51.6402 69.1356 51.7321C69.2275 51.7321 69.3193 51.824 69.5031 51.824C69.595 51.824 69.595 51.824 69.6869 51.9159L69.6869 51.9159C69.8707 52.0078 69.9626 52.0078 70.1464 52.0078C70.9734 52.0078 71.7086 51.4564 71.9842 50.7213C71.8923 49.7105 71.1572 48.9753 70.3302 48.7915ZM43.7732 45.9429L41.2921 47.1375L38.811 45.9429L38.1677 43.278L39.9137 41.0726L42.6705 41.0726L44.4164 43.278C44.4164 43.278 43.7732 45.9429 43.7732 45.9429ZM58.7517 39.9698C59.2111 41.8996 59.303 43.8293 59.1193 45.7591L50.3894 43.278L50.3894 43.278C49.5624 43.0942 49.1029 42.2672 49.2867 41.4401C49.3786 41.1645 49.4705 40.9807 49.6543 40.7969L56.5463 34.5482C57.5571 36.2022 58.2922 38.0401 58.7517 39.9698ZM53.7895 31.1481L46.2543 36.4779C45.611 36.8455 44.6921 36.7536 44.2326 36.1104C44.0488 35.9266 43.957 35.7428 43.957 35.4671L43.4056 26.1859C47.4489 26.6454 51.0327 28.3914 53.7895 31.1481C53.7895 31.1481 53.7895 31.1481 53.7895 31.1481ZM37.1569 26.4616L38.9947 26.094L38.5353 35.2833L38.5353 35.2833C38.5353 36.1104 37.8001 36.7536 36.9731 36.7536C36.6974 36.7536 36.5136 36.6617 36.238 36.5698L28.6109 31.1481C31.0001 28.8508 33.9406 27.1968 37.1569 26.4616ZM25.946 34.5482L32.746 40.6131L32.746 40.6131C33.3893 41.1645 33.4812 42.0834 32.9298 42.7266C32.746 43.0023 32.5623 43.0942 32.1947 43.1861L23.2811 45.7591C23.0054 41.8996 23.9243 37.9482 25.946 34.5482ZM24.3838 50.078L33.4812 48.5159C34.2163 48.5159 34.9515 48.9753 35.0434 49.7105C35.1352 49.9862 35.1352 50.3537 34.9515 50.6294L34.9515 50.6294L31.4595 59.0835C28.2433 56.97 25.6703 53.7538 24.3838 50.078ZM45.2435 61.4727C43.957 61.7484 42.6705 61.9322 41.2921 61.9322C39.3623 61.9322 37.3407 61.5646 35.5028 61.0133L40.0056 52.8348C40.465 52.2835 41.2002 52.0997 41.8434 52.4673C42.1191 52.651 42.3029 52.8348 42.5786 53.1105L42.5786 53.1105L46.9894 61.1052C46.4381 61.1971 45.8867 61.289 45.2435 61.4727ZM56.4544 53.4781C55.076 55.6835 53.1462 57.6133 50.9408 58.9916L47.357 50.3537C47.1732 49.6186 47.5408 48.8834 48.184 48.6078C48.4597 48.5159 48.7354 48.424 49.0111 48.424L58.2003 49.9862C57.7409 51.2727 57.1895 52.4673 56.4544 53.4781Z" fill="#ffffff" opacity="1"/>
</g>
</g>
</svg>
